<svg xmlns="http://www.w3.org/2000/svg" width="24" height="24" viewBox="0 0 24 24"><g stroke="#000" stroke-linecap="round" stroke-linejoin="round" stroke-miterlimit="10" fill="none"><circle cx="12" cy="12" r="11.5"/><path d="M20.5 4.256s-.5 2.744-2.5 3.744c-2-.5-4 1-3.5 1l1 2c.5.5 1.5 0 1.5 0 1.25 1.25-2 3.5-2 4s1.25.75.5 1.5l-1.5 1c0 2.5-2.5 2.5-3 2.5s-1.5-2-1.5-2.5.5-1 .5-1.5l-1-1.5c0-2-1.5-1.5-3-1.5l-1.5-2s0-3.5 2.5-4l2.5.5c1 1 3 0 4 0 0 0 .5-3.5-.5-3s-1.896.113-2-1c-.146-1.562 4.363-2.5 4.363-2.5"/></g></svg>